PathFileType	4	(X/Y/Z)	C:\Users\WrightLab\Desktop\Jo\P3_6.trc
DataRate	CameraRate	NumFrames	NumMarkers	Units	OrigDataRate	OrigDataStartFrame	OrigNumFrames
100.00	100.00	       12	19	mm	100.00	398	       530
Frame#	Time	Headset_Front			Headset_Back			Headset_Left			Headset_Right			Left_Shoulder			Right_Shoulder			Sternum			C7			Left Elbow			Right Elbow			Left Wrist			Right Wrist			Left ASIS			Right ASIS			S2			Left Knee			Right Knee			Left Ankle			Right Ankle			
		X1	Y1	Z1	X2	Y2	Z2	X3	Y3	Z3	X4	Y4	Z4	X5	Y5	Z5	X6	Y6	Z6	X7	Y7	Z7	X8	Y8	Z8	X9	Y9	Z9	X10	Y10	Z10	X11	Y11	Z11	X12	Y12	Z12	X13	Y13	Z13	X14	Y14	Z14	X15	Y15	Z15	X16	Y16	Z16	X17	Y17	Z17	X18	Y18	Z18	X19	Y19	Z19	

398	3.970	-796.89386	1530.73145	-793.96490	-626.93317	1451.27063	-891.55719							-913.40430	1313.14014	-718.49048	-574.06793	1316.87927	-614.59430	-708.52362	1209.11511	-806.11652	-752.07758	1362.17822	-616.85016	-967.33350	977.84412	-747.57703	-510.14755	978.19122	-554.84442	-925.62762	801.74664	-855.80676	-435.16565	786.52344	-661.07349	-821.60510	825.30188	-807.90570				-749.15845	908.23004	-575.94293				-599.56128	420.49979	-775.02710	-874.99066	225.93137	-487.64795	-629.51343	84.50570	-749.22064	
399	3.980	-796.47961	1531.28479	-802.74402										-912.37921	1313.39539	-727.09540	-572.20825	1317.63159	-625.23816	-708.06744	1208.85010	-814.87927	-750.10480	1363.19141	-625.40521	-964.96954	978.17834	-754.92645	-505.07739	978.44818	-567.27161	-922.21619	802.88190	-864.93018	-430.49899	789.19830	-676.25336	-820.53461	826.31152	-816.21130				-747.78638	908.30853	-585.34070				-599.74786	420.19107	-778.45856	-871.83972	227.71190	-508.80499	-629.33142	83.93476	-751.22205	
400	3.990	-795.98779	1531.90125	-810.54681	-626.46735	1454.72498	-910.42255							-911.14874	1313.61963	-735.11902	-570.84839	1318.95166	-635.87061	-707.58838	1208.73840	-823.39722	-748.04370	1363.21252	-633.91681	-962.98456	978.18066	-763.20007	-499.02045	980.04163	-579.30353	-919.21265	803.31964	-873.01855	-425.32416	792.30804	-692.06805	-819.33624	827.30341	-824.21759				-746.71655	910.48090	-591.62103				-599.07813	420.34857	-783.34698	-868.75781	228.79581	-527.88470	-629.39978	83.87904	-751.92499	
401	4.000	-795.56439	1532.46838	-818.14355										-909.87329	1314.12146	-743.96173	-569.09351	1319.63025	-645.16730	-707.20709	1208.48621	-831.73969	-747.61591	1363.98413	-643.01965	-962.81964	979.12726	-772.41833	-493.31305	981.50378	-591.08105	-916.41174	804.27789	-882.21777	-419.95688	795.06665	-707.72778	-817.85864	828.61774	-832.26691				-746.24109	911.27271	-599.54071				-599.47174	419.29044	-787.33643	-866.32562	230.37643	-546.70074	-630.16217	83.59319	-752.55573	
402	4.010	-795.08728	1533.08765	-826.89636	-626.09192	1457.31812	-928.36023							-909.13580	1314.41272	-752.35437	-567.78424	1319.58777	-652.14246	-706.70203	1208.56726	-840.71417	-745.10474	1364.08350	-651.25739	-960.32349	978.36749	-780.42017	-488.08536	982.01178	-603.00122	-913.77155	805.16553	-890.84100	-414.72641	798.70380	-722.75171	-816.19531	829.83331	-840.35236				-744.32996	911.89105	-608.43774				-598.91791	419.33914	-791.10144				-629.82904	83.64278	-753.02875	
403	4.020	-794.62091	1533.79028	-834.85950	-853.57233	218.54529	-609.59460							-907.69989	1314.73425	-760.41229	-566.68439	1321.20923	-663.51831	-705.95221	1208.71887	-848.65881	-744.58392	1364.94690	-660.39240	-958.67896	978.70508	-788.29163	-482.11343	983.19366	-614.51654	-911.71356	805.59363	-899.00555	-409.71338	802.21704	-738.71954	-814.34698	831.30127	-848.39990				-744.84027	912.07269	-615.84088				-599.01593	418.48672	-794.85834				-629.90399	83.79633	-754.88623	
404	4.030	-794.21063	1534.29028	-843.19727	-850.37006	214.99876	-631.23138							-907.29883	1314.74304	-768.26471	-565.38593	1322.24524	-673.98627	-705.42804	1208.43225	-856.86432	-742.86206	1364.94604	-668.62970	-957.67969	978.98688	-795.98914	-477.79199	984.17523	-625.77686	-909.52228	806.76318	-908.18964	-404.77078	806.23291	-754.11298	-812.51288	832.59546	-855.87463				-743.29468	913.28223	-622.20837				-598.74896	417.66504	-798.83234				-630.41077	83.61348	-756.16052	
405	4.040	-793.83527	1534.70374	-851.26355	-846.47845	210.28059	-654.47760							-905.97992	1315.58850	-777.35455	-564.15765	1323.16626	-682.22736	-704.64032	1208.43640	-864.96509	-742.68518	1365.90845	-677.13159	-956.55139	979.48248	-803.82428	-473.42508	985.74042	-637.43219	-907.95221	807.10919	-916.11615	-399.89386	810.37292	-770.06812	-810.59052	833.85968	-863.50043				-743.04065	913.42413	-629.83453				-598.60712	417.29944	-801.49127				-630.79846	83.32251	-756.52618	
406	4.050	-793.60010	1534.80566	-859.74451	-843.90717	205.54568	-678.89325							-905.35120	1315.17542	-784.51147	-563.24579	1324.17822	-690.56403	-703.65662	1208.74988	-872.96063	-739.87396	1364.99084	-685.20349	-955.72668	979.45007	-811.60321	-468.87314	986.98126	-649.05878	-906.51013	807.82166	-924.59241	-395.48126	814.20178	-784.44733	-808.94226	834.79749	-871.13428				-742.43542	913.70068	-637.93329	-826.31775	423.70639	-934.86139	-598.53333	416.57568	-805.28009				-631.13550	83.17957	-757.75537	
407	4.060	-793.26257	1534.93750	-867.03723	-840.49054	199.69450	-703.60187							-904.21747	1315.29089	-793.10413	-561.61267	1324.38684	-698.47955	-703.02484	1208.44775	-881.10278	-740.58942	1366.18640	-694.30908	-955.33856	979.70770	-819.64227	-465.43701	987.78711	-659.31342	-905.43335	808.20856	-933.06689	-390.36310	819.26239	-799.49878	-807.17627	835.66498	-878.81006				-741.83197	913.56995	-645.91254	-823.76166	428.63235	-953.77191	-598.23871	416.51459	-807.90051				-631.11078	83.40100	-757.96460	
408	4.070	-793.04364	1535.06921	-875.21228	-839.23743	189.04565	-734.84924							-903.51141	1315.15039	-801.12494	-560.89557	1325.31982	-709.07220	-702.14789	1208.54431	-889.15497	-738.65295	1365.52612	-702.12537	-954.18781	979.64996	-827.33508	-461.17639	988.69110	-670.87988	-904.56824	808.47772	-941.35370	-386.19638	823.50922	-813.36536	-805.71637	836.13196	-886.31708				-741.18640	914.35193	-653.41949	-625.34094	1462.01855	-981.21906	-598.23425	415.83466	-812.03168				-631.32764	83.48080	-759.36322	
409	4.080	-792.69086	1535.27844	-883.35022	-836.90912	180.22479	-763.97943							-902.24084	1314.78564	-808.86475	-559.79962	1325.03796	-716.07007	-701.29926	1208.61475	-897.36987	-738.80328	1366.97949	-711.15741	-953.64728	979.71289	-835.37469	-456.97867	989.93109	-681.83789	-903.91083	808.60535	-949.50476	-381.84396	827.19763	-827.95154	-804.47430	836.34259	-893.29083				-740.49609	914.62738	-661.82629	-625.14490	1462.84363	-989.65021	-597.73395	415.56906	-815.83557				-631.70502	83.59615	-759.28204	
